<?xml version="1.0" standalone="no"?>
<!DOCTYPE svg PUBLIC "-//W3C//DTD SVG 20010904//EN"
 "http://www.w3.org/TR/2001/REC-SVG-20010904/DTD/svg10.dtd">
<svg version="1.0" xmlns="http://www.w3.org/2000/svg"
 width="2560.000000pt" height="640.000000pt" viewBox="0 0 2560.000000 640.000000"
 preserveAspectRatio="xMidYMid meet">

<g transform="translate(0.000000,640.000000) scale(0.100000,-0.100000)"
fill="#000000" stroke="none">
<path d="M9250 6389 c-1523 -40 -2414 -233 -3200 -689 -407 -237 -798 -539
-1330 -1029 -194 -179 -1850 -1815 -3430 -3389 l-1285 -1281 1799 0 1798 -1
72 68 c40 37 369 355 732 707 1561 1517 2305 2229 2529 2420 600 513 1082 702
1980 775 406 33 500 33 5130 37 l4631 4 1194 1194 1195 1195 -5765 -2 c-3171
0 -5893 -5 -6050 -9z"/>
<path d="M18545 3200 l-3200 -3200 1925 0 1925 0 3200 3200 3200 3200 -1925 0
-1925 0 -3200 -3200z"/>
<path d="M9557 3599 c-1176 -38 -1707 -185 -2262 -626 -192 -153 -309 -266
-1661 -1613 l-1361 -1355 1675 -3 1676 -2 496 494 c510 509 604 592 772 684
209 115 428 167 813 192 103 6 1257 10 3250 10 l3090 0 1115 1115 1115 1115
-4240 -2 c-2332 0 -4347 -5 -4478 -9z"/>
<path d="M20830 740 l0 -60 125 0 125 0 0 -340 0 -340 70 0 70 0 0 340 0 340
125 0 125 0 0 60 0 60 -320 0 -320 0 0 -60z"/>
<path d="M21570 400 l0 -400 65 0 65 0 2 305 3 305 109 -305 109 -305 57 0 57
0 109 305 109 304 3 -304 2 -305 65 0 65 0 0 400 0 400 -94 0 -93 0 -47 -132
c-25 -73 -73 -213 -107 -311 -34 -98 -64 -175 -68 -172 -3 4 -54 142 -112 308
l-106 302 -97 3 -96 3 0 -401z"/>
</g>
</svg>
