<?xml version="1.0" standalone="no"?>
<!DOCTYPE svg PUBLIC "-//W3C//DTD SVG 20010904//EN"
 "http://www.w3.org/TR/2001/REC-SVG-20010904/DTD/svg10.dtd">
<svg version="1.0" xmlns="http://www.w3.org/2000/svg"
 width="512.000000pt" height="512.000000pt" viewBox="0 0 512.000000 512.000000"
 preserveAspectRatio="xMidYMid meet">

<g transform="translate(0.000000,512.000000) scale(0.100000,-0.100000)"
fill="#000000" stroke="none">
<path d="M2565 4709 c-798 -81 -1501 -569 -1850 -1284 -34 -71 -210 -502 -389
-957 l-326 -826 70 -584 c38 -320 73 -600 76 -620 l6 -38 1905 0 1905 0 96 63
c562 363 933 938 1038 1607 25 160 25 500 1 660 -128 829 -653 1500 -1422
1820 -329 136 -747 196 -1110 159z m575 -318 c738 -129 1340 -647 1575 -1353
40 -121 93 -353 82 -364 -2 -2 -324 -3 -715 -2 l-710 3 89 149 c50 82 87 151
84 154 -5 6 -241 45 -1625 273 -476 78 -868 145 -873 149 -4 3 24 53 62 111
336 507 852 822 1471 899 121 15 428 4 560 -19z m-1452 -1406 c416 -69 897
-148 1069 -176 l312 -52 -22 -37 c-12 -21 -146 -243 -297 -493 l-275 -456
-1049 -1 c-994 0 -1048 1 -1044 18 3 9 121 311 263 670 162 410 263 652 272
652 7 0 354 -56 771 -125z m3132 -644 c0 -41 -20 -232 -26 -253 -5 -17 -56
-18 -896 -18 -492 0 -888 4 -886 9 2 4 41 72 88 149 l85 141 818 1 817 0 0
-29z m-127 -638 c-133 -369 -403 -715 -742 -951 l-74 -52 -1731 0 -1731 0 -43
368 c-24 202 -46 375 -48 385 -5 16 55 17 1158 17 l1163 0 89 150 88 150 948
0 948 0 -25 -67z"/>
</g>
</svg>
