<?xml version="1.0" standalone="no"?>
<!DOCTYPE svg PUBLIC "-//W3C//DTD SVG 20010904//EN"
 "http://www.w3.org/TR/2001/REC-SVG-20010904/DTD/svg10.dtd">
<svg version="1.0" xmlns="http://www.w3.org/2000/svg"
 width="512.000000pt" height="512.000000pt" viewBox="0 0 512.000000 512.000000"
 preserveAspectRatio="xMidYMid meet">

<g transform="translate(0.000000,512.000000) scale(0.100000,-0.100000)"
fill="#000000" stroke="none">
<path d="M811 4144 c-238 -65 -394 -306 -352 -544 27 -150 18 -139 631 -755
307 -308 565 -574 574 -592 11 -22 16 -58 16 -115 0 -99 -21 -153 -71 -189
l-34 -24 -595 -5 c-583 -5 -596 -5 -653 -27 -158 -60 -271 -182 -312 -338 -65
-251 93 -513 352 -580 49 -13 194 -15 979 -15 528 0 942 4 970 9 28 5 75 19
107 31 111 42 162 87 390 344 225 253 271 299 316 319 19 9 232 13 786 17
l760 5 66 26 c99 38 154 74 221 142 69 72 131 188 147 281 15 80 15 852 0 932
-38 213 -230 405 -443 443 -34 6 -191 11 -362 11 l-302 0 -4 70 c-6 110 -58
165 -158 165 -100 0 -152 -55 -158 -166 l-4 -70 -562 3 -561 3 -45 27 c-26 15
-139 125 -265 257 -226 238 -277 281 -380 322 -60 24 -60 24 -530 26 -388 2
-479 0 -524 -13z m946 -314 c15 -6 145 -129 288 -273 233 -236 267 -267 328
-295 128 -61 137 -62 748 -62 l557 0 4 -70 c6 -110 58 -165 158 -165 100 0
152 55 158 165 l4 70 295 0 c203 0 309 -4 337 -12 55 -16 138 -99 154 -154 17
-58 17 -810 0 -868 -16 -55 -99 -138 -154 -154 -31 -9 -223 -12 -751 -12 -460
0 -730 -4 -769 -11 -81 -14 -209 -79 -270 -136 -29 -26 -142 -150 -253 -275
-215 -242 -244 -270 -306 -288 -29 -8 -289 -10 -952 -8 -903 3 -912 3 -939 24
-52 38 -69 71 -69 132 0 70 26 111 88 141 42 21 56 21 594 21 326 0 572 4 604
10 171 32 326 178 371 349 22 84 23 253 3 340 -30 127 -33 130 -631 731 -487
489 -564 571 -575 608 -21 72 15 152 83 185 29 14 86 17 450 17 259 0 427 -4
445 -10z"/>
</g>
</svg>
